<svg width="32" height="32" viewBox="0 0 32 32" fill="none" xmlns="http://www.w3.org/2000/svg">
    <path d="M27.2704 7.98657C23.6035 5.24257 20.0902 5.31969 20.0902 5.31969L19.7312 5.72993C24.0905 7.03777 26.1165 8.96097 26.1165 8.96097C19.8793 5.52705 11.935 5.55169 5.44767 8.96097C5.44767 8.96097 7.55039 6.93505 12.1664 5.62721L11.9101 5.31937C11.9101 5.31937 8.42239 5.24257 4.72991 7.98625C4.72991 7.98625 1.03711 14.6279 1.03711 22.8083C1.03711 22.8083 3.19135 26.5011 8.85855 26.6807C8.85855 26.6807 9.80735 25.5523 10.5766 24.5779C7.31999 23.6035 6.08895 21.5776 6.08895 21.5776C8.13503 22.8579 10.2038 23.6592 12.7821 24.1677C16.9766 25.0311 22.1942 24.1434 26.0912 21.5776C26.0912 21.5776 24.8089 23.6547 21.4496 24.6035C22.2189 25.5523 23.1421 26.6551 23.1421 26.6551C28.8093 26.4755 30.9632 22.7827 30.9632 22.8087C30.9629 14.6282 27.2704 7.98657 27.2704 7.98657ZM11.2176 20.4237C9.78143 20.4237 8.60191 19.1671 8.60191 17.6029C8.70687 13.8566 13.7545 13.8682 13.8333 17.6029C13.8333 19.1671 12.679 20.4237 11.2176 20.4237ZM20.5773 20.4237C19.1411 20.4237 17.9616 19.1671 17.9616 17.6029C18.0768 13.864 23.0614 13.8624 23.1929 17.6029C23.1929 19.1671 22.039 20.4237 20.5773 20.4237Z" fill="white"/>
</svg>